<?xml version="1.0" encoding="UTF-8" standalone="no"?>
<!-- Created with Inkscape (http://www.inkscape.org/) -->

<svg
   xmlns:dc="http://purl.org/dc/elements/1.1/"
   xmlns:cc="http://creativecommons.org/ns#"
   xmlns:rdf="http://www.w3.org/1999/02/22-rdf-syntax-ns#"
   xmlns:svg="http://www.w3.org/2000/svg"
   xmlns="http://www.w3.org/2000/svg"
   xmlns:sodipodi="http://sodipodi.sourceforge.net/DTD/sodipodi-0.dtd"
   xmlns:inkscape="http://www.inkscape.org/namespaces/inkscape"
   width="79.961052mm"
   height="79.966133mm"
   viewBox="0 0 283.32656 283.34456"
   id="svg2"
   version="1.1"
   inkscape:version="0.91 r13725"
   sodipodi:docname="expand.svg">
  <defs
     id="defs4" />
  <sodipodi:namedview
     id="base"
     pagecolor="#ffffff"
     bordercolor="#666666"
     borderopacity="1.0"
     inkscape:pageopacity="0.0"
     inkscape:pageshadow="2"
     inkscape:zoom="0.98994949"
     inkscape:cx="176.87252"
     inkscape:cy="-56.434304"
     inkscape:document-units="px"
     inkscape:current-layer="layer1"
     showgrid="false"
     fit-margin-top="1.3"
     fit-margin-left="1.3"
     fit-margin-right="1.3"
     fit-margin-bottom="1.3"
     inkscape:window-width="2481"
     inkscape:window-height="1376"
     inkscape:window-x="79"
     inkscape:window-y="27"
     inkscape:window-maximized="1" />
  <metadata
     id="metadata7">
    <rdf:RDF>
      <cc:Work
         rdf:about="">
        <dc:format>image/svg+xml</dc:format>
        <dc:type
           rdf:resource="http://purl.org/dc/dcmitype/StillImage" />
        <dc:title></dc:title>
      </cc:Work>
    </rdf:RDF>
  </metadata>
  <g
     inkscape:label="Layer 1"
     inkscape:groupmode="layer"
     id="layer1"
     transform="translate(-97.654213,-187.30574)">
    <path
       style="fill:#ffffff"
       d="m 107.84327,465.35006 c -5.09911,-1.57665 -5.57875,-4.16958 -5.58275,-30.17977 -0.005,-29.64156 2.37564,-51.98899 5.96911,-56.04359 0.85304,-0.9625 2.93605,-1.75 4.62891,-1.75 2.5665,0 4.77323,1.68952 13.28053,10.16787 l 10.2026,10.16787 3.81448,-2.9051 c 2.09796,-1.5978 11.81123,-9.77335 21.58504,-18.16787 11.5637,-9.93182 18.54926,-15.2551 20,-15.24081 6.58178,0.0648 18.17381,8.97464 22.31894,17.15465 4.29351,8.47284 5.02274,7.13042 -20.54652,37.82339 -6.18551,7.425 -11.48423,14.08978 -11.77493,14.81061 -0.30551,0.75757 3.74617,5.65461 9.6017,11.60504 7.32906,7.44783 10.13025,10.97759 10.13025,12.76507 0,7.55356 -11.65164,9.86034 -52.5,10.39389 -16.34529,0.2135 -29.30173,-0.0368 -31.12736,-0.60125 z"
       id="path4155"
       inkscape:connector-curvature="0" />
    <path
       style="fill:#ffffff"
       d="m 312.97063,465.31706 c -21.4435,-2.32464 -25.5,-3.929 -25.5,-10.08537 0,-2.64004 1.60974,-4.78079 10.02635,-13.3338 l 10.02634,-10.18883 -5.27634,-6.53887 c -2.90199,-3.59637 -11.01385,-13.17869 -18.02635,-21.29405 -7.74503,-8.96308 -12.74617,-15.58823 -12.74023,-16.87733 0.0306,-6.65292 10.57344,-19.87875 18.47928,-23.18202 6.72516,-2.80995 8.04525,-2.22403 23.01095,10.21336 7.7,6.39916 17.32371,14.29518 21.38603,17.54671 l 7.38603,5.91187 10.219,-10.05603 c 8.58034,-8.44351 10.72331,-10.05604 13.36397,-10.05604 1.74217,0 3.98162,0.83665 5.02067,1.8757 3.86936,3.86936 6.4229,29.53931 5.96099,59.92411 -0.32668,21.48928 -0.40436,22.21538 -2.61287,24.42395 -2.23903,2.23908 -2.68797,2.27875 -27.5,2.43007 -13.8731,0.0846 -28.82382,-0.23643 -33.22382,-0.71343 z"
       id="path4153"
       inkscape:connector-curvature="0" />
    <path
       style="fill:#ffffff"
       d="m 293.23467,296.38099 c -9.7243,-2.92803 -20.76404,-15.49035 -20.76404,-23.62778 0,-3.11215 0.48014,-3.77659 17.61608,-24.37807 7.09166,-8.52585 13.96557,-17.00656 15.27537,-18.846 l 2.38146,-3.34445 -10.13645,-10.17107 c -10.79287,-10.82972 -11.95107,-13.24738 -8.38646,-17.50614 1.28983,-1.541 4.09333,-2.49187 10.66146,-3.6161 18.93702,-3.24131 64.52581,-4.07545 71.83193,-1.31431 4.52276,1.70926 5.04575,5.95648 4.46978,36.29963 -0.58649,30.89756 -2.32235,45.39063 -5.89154,49.18986 -3.93897,4.19284 -6.25639,3.15168 -17.40598,-7.82011 -5.83371,-5.74067 -10.86233,-9.91197 -11.60504,-9.6265 -0.72083,0.27706 -8.28561,6.49677 -16.81061,13.82157 -27.53133,23.65532 -25.88396,22.55098 -31.23596,20.93947 z"
       id="path4151"
       inkscape:connector-curvature="0" />
    <path
       style="fill:#ffffff"
       d="m 159.97063,279.78459 c -11,-9.11396 -20.83333,-17.02454 -21.85184,-17.57905 -1.56786,-0.8536 -3.42413,0.53902 -12.10503,9.08148 -10.31835,10.1538 -12.4069,11.30332 -16.52879,9.09736 -2.52583,-1.35179 -3.68337,-5.41844 -5.5527,-19.50768 -1.88682,-14.22103 -2.28832,-59.318 -0.56774,-63.76793 0.58863,-1.52237 2.3158,-3.2586 3.83817,-3.85831 4.45413,-1.75461 49.45241,-1.3532 63.76793,0.56885 14.10903,1.89433 18.1586,3.05096 19.50768,5.57173 2.20762,4.12499 1.05712,6.20974 -9.15262,16.58495 l -10.14495,10.30934 1.68531,2.5721 c 0.92691,1.41465 8.61328,10.63588 17.08082,20.49161 8.46753,9.85574 15.902,18.86589 16.52103,20.02256 2.12725,3.97481 -3.14358,14.57445 -10.21611,20.54461 -4.06037,3.42749 -10.46085,6.41285 -13.78116,6.4279 -1.77047,0.008 -8.33623,-4.82423 -22.5,-16.55952 z"
       id="path4147"
       inkscape:connector-curvature="0" />
  </g>
</svg>
