<?xml version="1.0" encoding="UTF-8" standalone="no"?>
<!-- Generator: Adobe Illustrator 21.1.0, SVG Export Plug-In . SVG Version: 6.00 Build 0)  -->

<svg
   xmlns:dc="http://purl.org/dc/elements/1.1/"
   xmlns:cc="http://creativecommons.org/ns#"
   xmlns:rdf="http://www.w3.org/1999/02/22-rdf-syntax-ns#"
   xmlns:svg="http://www.w3.org/2000/svg"
   xmlns="http://www.w3.org/2000/svg"
   xmlns:sodipodi="http://sodipodi.sourceforge.net/DTD/sodipodi-0.dtd"
   xmlns:inkscape="http://www.inkscape.org/namespaces/inkscape"
   version="1.1"
   id="Layer_1"
   x="0px"
   y="0px"
   viewBox="0 0 82 102.7"
   xml:space="preserve"
   inkscape:version="0.91 r13725"
   sodipodi:docname="Groups-highlighted.svg"
   width="82"
   height="102.7"><metadata
     id="metadata42"><rdf:RDF><cc:Work
         rdf:about=""><dc:format>image/svg+xml</dc:format><dc:type
           rdf:resource="http://purl.org/dc/dcmitype/StillImage" /><dc:title></dc:title></cc:Work></rdf:RDF></metadata><defs
     id="defs40" /><sodipodi:namedview
     pagecolor="#ffffff"
     bordercolor="#666666"
     borderopacity="1"
     objecttolerance="10"
     gridtolerance="10"
     guidetolerance="10"
     inkscape:pageopacity="0"
     inkscape:pageshadow="2"
     inkscape:window-width="1406"
     inkscape:window-height="959"
     id="namedview38"
     showgrid="false"
     inkscape:zoom="1.5733333"
     inkscape:cx="-118.2161"
     inkscape:cy="36.299996"
     inkscape:window-x="79"
     inkscape:window-y="27"
     inkscape:window-maximized="0"
     inkscape:current-layer="Layer_1"
     fit-margin-top="0"
     fit-margin-left="0"
     fit-margin-right="0"
     fit-margin-bottom="0" /><g
     id="g20"
     style="fill:#4dced0;fill-opacity:1"
     transform="translate(-19,-8.6)"><path
       d="m 96.1,50.2 0,-10.5 -9.2,-5.2 -9.2,5.2 0,10.5 9.2,5.2 9.2,-5.2 z m -14.9,-8.5 5.7,-3.2 5.7,3.2 0,6.5 -5.7,3.2 -5.7,-3.2 0,-6.5 z"
       id="path22"
       style="fill:#4dced0;fill-opacity:1"
       inkscape:connector-curvature="0" /><path
       d="m 92.5,55.4 -5.6,3.2 -5.6,-3.2 -8.5,4.8 0,16.1 14.1,8 14.1,-8 0,-16 -8.5,-4.9 z m 5,18.9 -10.6,6 -10.6,-6 0,-12 5,-2.9 3.9,2.2 0,8.3 3.5,0 0,-8.3 3.9,-2.2 5,2.9 0,12 -0.1,0 z"
       id="path24"
       style="fill:#4dced0;fill-opacity:1"
       inkscape:connector-curvature="0" /><path
       d="m 50.7,66.7 0,10.5 9.2,5.2 9.2,-5.2 0,-10.5 -9.2,-5.2 -9.2,5.2 z m 14.9,8.5 -5.7,3.2 -5.7,-3.2 0,-6.4 5.7,-3.2 5.7,3.2 0,6.4 z"
       id="path26"
       style="fill:#4dced0;fill-opacity:1"
       inkscape:connector-curvature="0" /><path
       d="m 59.9,85.6 -5.6,-3.2 -8.5,4.8 0,16.1 14.1,8 14.1,-8 0,-16 -8.5,-4.8 -5.6,3.1 z m 10.6,3.7 0,12.1 -10.6,6 -10.6,-6 0,-12.1 5,-2.9 3.9,2.2 0,8.3 3.5,0 0,-8.3 3.9,-2.2 4.9,2.9 z"
       id="path28"
       style="fill:#4dced0;fill-opacity:1"
       inkscape:connector-curvature="0" /><path
       d="m 42.3,50.2 0,-10.5 -9.2,-5.2 -9.2,5.2 0,10.5 9.2,5.2 9.2,-5.2 z m -14.9,-8.5 5.7,-3.2 5.7,3.2 0,6.5 -5.7,3.2 -5.7,-3.2 c 0,0 0,-6.5 0,-6.5 z"
       id="path30"
       style="fill:#4dced0;fill-opacity:1"
       inkscape:connector-curvature="0" /><path
       d="m 47.2,60.3 -8.5,-4.8 -5.6,3.2 -5.6,-3.2 -8.5,4.8 0,16.1 14.1,8 14.1,-8 c 0,0 0,-16.1 0,-16.1 z m -3.5,14 -10.6,6 -10.6,-6 0,-12 5,-2.9 3.9,2.2 0,8.3 3.5,0 0,-8.3 3.9,-2.2 5,2.9 -0.1,12 0,0 z"
       id="path32"
       style="fill:#4dced0;fill-opacity:1"
       inkscape:connector-curvature="0" /><path
       d="m 69.3,24.3 0,-10.5 -9.2,-5.2 -9.2,5.2 0,10.5 9.2,5.2 9.2,-5.2 z m -14.9,-8.4 5.7,-3.2 5.7,3.2 0,6.5 -5.7,3.2 -5.7,-3.2 0,-6.5 z"
       id="path34"
       style="fill:#4dced0;fill-opacity:1"
       inkscape:connector-curvature="0" /><path
       d="m 74.2,50.5 0,-16.1 -8.5,-4.8 -5.6,3.2 -5.6,-3.2 -8.5,4.8 0,16.1 14.1,8 14.1,-8 z m -24.7,-14.1 5,-2.9 3.9,2.2 0,8.3 3.5,0 0,-8.3 3.9,-2.2 5,2.9 0,12.1 -10.6,6 -10.6,-6 0,-12.1 -0.1,0 z"
       id="path36"
       style="fill:#4dced0;fill-opacity:1"
       inkscape:connector-curvature="0" /></g></svg>