<?xml version="1.0" encoding="UTF-8" standalone="no"?>
<!-- Generator: Adobe Illustrator 21.1.0, SVG Export Plug-In . SVG Version: 6.00 Build 0)  -->

<svg
   xmlns:dc="http://purl.org/dc/elements/1.1/"
   xmlns:cc="http://creativecommons.org/ns#"
   xmlns:rdf="http://www.w3.org/1999/02/22-rdf-syntax-ns#"
   xmlns:svg="http://www.w3.org/2000/svg"
   xmlns="http://www.w3.org/2000/svg"
   xmlns:sodipodi="http://sodipodi.sourceforge.net/DTD/sodipodi-0.dtd"
   xmlns:inkscape="http://www.inkscape.org/namespaces/inkscape"
   version="1.1"
   id="Layer_1"
   x="0px"
   y="0px"
   viewBox="0 0 120 150"
   style="enable-background:new 0 0 120 150;"
   xml:space="preserve"
   inkscape:version="0.91 r13725"
   sodipodi:docname="Groups.svg"><metadata
     id="metadata42"><rdf:RDF><cc:Work
         rdf:about=""><dc:format>image/svg+xml</dc:format><dc:type
           rdf:resource="http://purl.org/dc/dcmitype/StillImage" /></cc:Work></rdf:RDF></metadata><defs
     id="defs40" /><sodipodi:namedview
     pagecolor="#ffffff"
     bordercolor="#666666"
     borderopacity="1"
     objecttolerance="10"
     gridtolerance="10"
     guidetolerance="10"
     inkscape:pageopacity="0"
     inkscape:pageshadow="2"
     inkscape:window-width="640"
     inkscape:window-height="480"
     id="namedview38"
     showgrid="false"
     inkscape:zoom="1.5733333"
     inkscape:cx="60"
     inkscape:cy="75"
     inkscape:window-x="79"
     inkscape:window-y="27"
     inkscape:window-maximized="0"
     inkscape:current-layer="Layer_1" /><g
     id="g20"
     style="fill:#ffffff"><path
       d="M96.1,50.2V39.7l-9.2-5.2l-9.2,5.2v10.5l9.2,5.2L96.1,50.2z M81.2,41.7l5.7-3.2l5.7,3.2v6.5l-5.7,3.2l-5.7-3.2V41.7z"
       id="path22"
       style="fill:#ffffff" /><path
       d="M92.5,55.4l-5.6,3.2l-5.6-3.2l-8.5,4.8v16.1l14.1,8l14.1-8v-16L92.5,55.4z M97.5,74.3l-10.6,6l-10.6-6v-12l5-2.9l3.9,2.2   v8.3h3.5v-8.3l3.9-2.2l5,2.9v12H97.5z"
       id="path24"
       style="fill:#ffffff" /><path
       d="M50.7,66.7v10.5l9.2,5.2l9.2-5.2V66.7l-9.2-5.2L50.7,66.7z M65.6,75.2l-5.7,3.2l-5.7-3.2v-6.4l5.7-3.2l5.7,3.2V75.2z"
       id="path26"
       style="fill:#ffffff" /><path
       d="M59.9,85.6l-5.6-3.2l-8.5,4.8v16.1l14.1,8l14.1-8v-16l-8.5-4.8L59.9,85.6z M70.5,89.3v12.1l-10.6,6l-10.6-6V89.3l5-2.9   l3.9,2.2v8.3h3.5v-8.3l3.9-2.2L70.5,89.3z"
       id="path28"
       style="fill:#ffffff" /><path
       d="M42.3,50.2V39.7l-9.2-5.2l-9.2,5.2v10.5l9.2,5.2L42.3,50.2z M27.4,41.7l5.7-3.2l5.7,3.2v6.5l-5.7,3.2l-5.7-3.2   C27.4,48.2,27.4,41.7,27.4,41.7z"
       id="path30"
       style="fill:#ffffff" /><path
       d="M47.2,60.3l-8.5-4.8l-5.6,3.2l-5.6-3.2L19,60.3v16.1l14.1,8l14.1-8C47.2,76.4,47.2,60.3,47.2,60.3z M43.7,74.3l-10.6,6   l-10.6-6v-12l5-2.9l3.9,2.2v8.3h3.5v-8.3l3.9-2.2l5,2.9L43.7,74.3L43.7,74.3z"
       id="path32"
       style="fill:#ffffff" /><path
       d="M69.3,24.3V13.8l-9.2-5.2l-9.2,5.2v10.5l9.2,5.2L69.3,24.3z M54.4,15.9l5.7-3.2l5.7,3.2v6.5l-5.7,3.2l-5.7-3.2V15.9z"
       id="path34"
       style="fill:#ffffff" /><path
       d="M74.2,50.5V34.4l-8.5-4.8l-5.6,3.2l-5.6-3.2L46,34.4v16.1l14.1,8L74.2,50.5z M49.5,36.4l5-2.9l3.9,2.2V44h3.5v-8.3l3.9-2.2   l5,2.9v12.1l-10.6,6l-10.6-6V36.4H49.5z"
       id="path36"
       style="fill:#ffffff" /></g></svg>