<?xml version="1.0" encoding="UTF-8" standalone="no"?>
<svg
   xmlns:dc="http://purl.org/dc/elements/1.1/"
   xmlns:cc="http://creativecommons.org/ns#"
   xmlns:rdf="http://www.w3.org/1999/02/22-rdf-syntax-ns#"
   xmlns:svg="http://www.w3.org/2000/svg"
   xmlns="http://www.w3.org/2000/svg"
   height="100"
   width="68"
   id="svg2"
   xml:space="preserve"
   enable-background="new 0 0 68 100"
   viewBox="0 0 68 100"
   y="0px"
   x="0px"
   version="1.1"><metadata
     id="metadata14"><rdf:RDF><cc:Work
         rdf:about=""><dc:format>image/svg+xml</dc:format><dc:type
           rdf:resource="http://purl.org/dc/dcmitype/StillImage" /><dc:title></dc:title></cc:Work></rdf:RDF></metadata><defs
     id="defs12" /><path
     style="fill:#ffffff"
     id="path4"
     d="M 60.5,41.338 60.5,26.5 C 60.5,11.888 48.611,0 34,0 19.389,0 7.5,11.888 7.5,26.5 L 7.5,41.338 0,42 0,97 34,100 68,97 68,42 60.5,41.338 Z M 38,77.5 l -4,0 -4,0 2.291,-8.396 C 30.94,68.461 30,67.096 30,65.5 c 0,-2.21 1.791,-4 4,-4 2.21,0 4,1.79 4,4 0,1.596 -0.939,2.961 -2.289,3.603 L 38,77.5 Z M 52.5,40.633 34,39 15.5,40.633 15.5,26.5 C 15.5,16.299 23.799,8 34,8 44.201,8 52.5,16.299 52.5,26.5 l 0,14.133 z" /></svg>