<?xml version="1.0" encoding="UTF-8" standalone="no"?>
<!-- Created with Inkscape (http://www.inkscape.org/) -->

<svg
   xmlns:dc="http://purl.org/dc/elements/1.1/"
   xmlns:cc="http://creativecommons.org/ns#"
   xmlns:rdf="http://www.w3.org/1999/02/22-rdf-syntax-ns#"
   xmlns:svg="http://www.w3.org/2000/svg"
   xmlns="http://www.w3.org/2000/svg"
   xmlns:sodipodi="http://sodipodi.sourceforge.net/DTD/sodipodi-0.dtd"
   xmlns:inkscape="http://www.inkscape.org/namespaces/inkscape"
   width="52.8755mm"
   height="47.5406mm"
   viewBox="0 0 187.35413 168.45094"
   id="svg2"
   version="1.1"
   inkscape:version="0.91 r13725"
   sodipodi:docname="measure-logo.svg">
  <defs
     id="defs4" />
  <sodipodi:namedview
     id="base"
     pagecolor="#ffffff"
     bordercolor="#666666"
     borderopacity="1.0"
     inkscape:pageopacity="0.0"
     inkscape:pageshadow="2"
     inkscape:zoom="3.959798"
     inkscape:cx="153.50717"
     inkscape:cy="86.076945"
     inkscape:document-units="px"
     inkscape:current-layer="layer1"
     showgrid="false"
     fit-margin-top="0"
     fit-margin-left="0"
     fit-margin-right="0"
     fit-margin-bottom="0"
     inkscape:window-width="2339"
     inkscape:window-height="1074"
     inkscape:window-x="220"
     inkscape:window-y="216"
     inkscape:window-maximized="0" />
  <metadata
     id="metadata7">
    <rdf:RDF>
      <cc:Work
         rdf:about="">
        <dc:format>image/svg+xml</dc:format>
        <dc:type
           rdf:resource="http://purl.org/dc/dcmitype/StillImage" />
        <dc:title></dc:title>
      </cc:Work>
    </rdf:RDF>
  </metadata>
  <g
     inkscape:label="Layer 1"
     inkscape:groupmode="layer"
     id="layer1"
     transform="translate(-74.416977,-190.80031)">
    <rect
       style="opacity:1;fill:#3b404f;fill-opacity:1;stroke:none;stroke-width:1.70000005;stroke-linecap:butt;stroke-linejoin:round;stroke-miterlimit:4;stroke-dasharray:none;stroke-dashoffset:0;stroke-opacity:1"
       id="rect4146"
       width="187.70847"
       height="168.80528"
       x="74.416977"
       y="190.44597" />
    <rect
       style="opacity:1;fill:#44cdcf;fill-opacity:1;stroke:none;stroke-width:1.70000005;stroke-linecap:butt;stroke-linejoin:round;stroke-miterlimit:4;stroke-dasharray:none;stroke-dashoffset:0;stroke-opacity:1"
       id="rect4140"
       width="47.142857"
       height="125"
       x="95"
       y="199.50507" />
    <rect
       y="199.50507"
       x="205"
       height="125"
       width="47.142857"
       id="rect4142"
       style="opacity:1;fill:#44cdcf;fill-opacity:1;stroke:none;stroke-width:1.70000005;stroke-linecap:butt;stroke-linejoin:round;stroke-miterlimit:4;stroke-dasharray:none;stroke-dashoffset:0;stroke-opacity:1" />
    <rect
       style="opacity:1;fill:#ff81ab;fill-opacity:1;stroke:none;stroke-width:1.70000005;stroke-linecap:butt;stroke-linejoin:round;stroke-miterlimit:4;stroke-dasharray:none;stroke-dashoffset:0;stroke-opacity:1"
       id="rect4144"
       width="47.142853"
       height="68.469902"
       x="150"
       y="256.03516" />
    <path
       style="fill:none;fill-rule:evenodd;stroke:#ffffff;stroke-width:1px;stroke-linecap:butt;stroke-linejoin:miter;stroke-opacity:1"
       d="m 88.482143,199.48274 0,131.37801 163.749997,0"
       id="path4148"
       inkscape:connector-curvature="0"
       sodipodi:nodetypes="ccc" />
    <path
       style="fill:none;fill-rule:evenodd;stroke:#ffffff;stroke-width:1px;stroke-linecap:butt;stroke-linejoin:miter;stroke-opacity:1"
       d="m 86.40625,199.9738 2.053572,0"
       id="path4150"
       inkscape:connector-curvature="0" />
    <path
       inkscape:connector-curvature="0"
       id="path4152"
       d="m 86.40625,220.61961 2.053572,0"
       style="fill:none;fill-rule:evenodd;stroke:#ffffff;stroke-width:1px;stroke-linecap:butt;stroke-linejoin:miter;stroke-opacity:1" />
    <path
       style="fill:none;fill-rule:evenodd;stroke:#ffffff;stroke-width:1px;stroke-linecap:butt;stroke-linejoin:miter;stroke-opacity:1"
       d="m 86.40625,241.26543 2.053572,0"
       id="path4154"
       inkscape:connector-curvature="0" />
    <path
       inkscape:connector-curvature="0"
       id="path4156"
       d="m 86.40625,261.91124 2.053572,0"
       style="fill:none;fill-rule:evenodd;stroke:#ffffff;stroke-width:1px;stroke-linecap:butt;stroke-linejoin:miter;stroke-opacity:1" />
    <path
       style="fill:none;fill-rule:evenodd;stroke:#ffffff;stroke-width:1px;stroke-linecap:butt;stroke-linejoin:miter;stroke-opacity:1"
       d="m 86.40625,282.55705 2.053572,0"
       id="path4158"
       inkscape:connector-curvature="0" />
    <path
       inkscape:connector-curvature="0"
       id="path4160"
       d="m 86.40625,303.20286 2.053572,0"
       style="fill:none;fill-rule:evenodd;stroke:#ffffff;stroke-width:1px;stroke-linecap:butt;stroke-linejoin:miter;stroke-opacity:1" />
    <path
       style="fill:none;fill-rule:evenodd;stroke:#ffffff;stroke-width:1px;stroke-linecap:butt;stroke-linejoin:miter;stroke-opacity:1"
       d="m 86.40625,323.84868 2.053572,0"
       id="path4162"
       inkscape:connector-curvature="0" />
    <g
       style="font-style:normal;font-variant:normal;font-weight:normal;font-stretch:normal;font-size:30px;line-height:125%;font-family:'URW Bookman L';-inkscape-font-specification:'URW Bookman L';letter-spacing:0.66000003px;word-spacing:0px;fill:#000000;fill-opacity:1;stroke:none;stroke-width:1px;stroke-linecap:butt;stroke-linejoin:miter;stroke-opacity:1"
       id="text4209">
      <path
         d="m 115.24249,346.54999 q 0,0.74402 0.25269,1.06689 0.26672,0.30884 1.01074,0.30884 l 0.46326,0 0,5.20813 -9.4336,0 0,-8.97034 q 0,-0.54748 -0.1123,-0.87036 -0.11231,-0.33691 -0.30884,-0.50537 -0.18249,-0.18249 -0.43518,-0.23865 -0.23865,-0.0562 -0.46326,-0.0562 -0.92651,0 -1.27746,0.53345 -0.33692,0.53345 -0.33692,1.51611 l 0,2.00745 q 0,0.74402 0.25269,1.06689 0.26672,0.30884 1.01074,0.30884 l 0.46326,0 0,5.20813 -11.441042,0 0,-5.20813 0.828247,0 q 0.575562,0 0.870361,-0.36499 0.308838,-0.37903 0.308838,-0.89844 l 0,-2.66723 q 0,-0.65979 -0.393066,-0.8844 -0.379028,-0.23865 -0.870361,-0.23865 l -0.744019,0 0,-5.20813 8.338622,0 -0.2948,3.86047 0.23865,0 q 0.30884,-2.16186 1.74072,-3.32702 1.44592,-1.16516 4.18335,-1.16516 1.02478,0 1.90918,0.28076 0.89844,0.26672 1.5863,0.82824 0.70191,0.56153 1.09498,1.41785 0.4071,0.84229 0.46325,1.96533 l 0.19654,0 q 0.12634,-1.06689 0.61767,-1.90918 0.50537,-0.85632 1.26343,-1.41784 0.77209,-0.56153 1.68457,-0.85633 0.92651,-0.30883 1.93725,-0.30883 1.86707,0 3.04627,0.54748 1.1792,0.54749 1.83899,1.38977 0.65979,0.82825 0.89844,1.81091 0.25268,0.96863 0.25268,1.82496 l 0,3.9447 q 0,0.74402 0.25269,1.06689 0.26672,0.30884 1.01074,0.30884 l 0.74402,0 0,5.20813 -9.71436,0 0,-8.97034 q 0,-0.54748 -0.12634,-0.87036 -0.1123,-0.33691 -0.2948,-0.50537 -0.1825,-0.18249 -0.43518,-0.23865 -0.23865,-0.0562 -0.46326,-0.0562 -0.92651,0 -1.27746,0.53345 -0.33692,0.53345 -0.33692,1.51611 l 0,2.00745 z"
         style="font-style:normal;font-variant:normal;font-weight:normal;font-stretch:normal;font-size:28.75px;font-family:Ultra;-inkscape-font-specification:Ultra;letter-spacing:0.36000001px;fill:#ffffff"
         id="path4214" />
      <path
         d="m 137.16499,346.26923 q 0.0562,2.09167 0.78614,2.89184 0.74401,0.78613 2.11975,0.78613 0.46325,0 0.89843,-0.12634 0.44922,-0.14038 0.82825,-0.43518 0.37903,-0.30884 0.64575,-0.80017 0.28077,-0.50537 0.36499,-1.26343 l 5.10987,0 q -0.28076,1.81092 -1.03882,3.03223 -0.74402,1.22131 -1.92322,1.97937 -1.1792,0.74402 -2.75146,1.06689 -1.55823,0.33692 -3.48145,0.33692 -1.97937,0 -3.72009,-0.50537 -1.74072,-0.50537 -3.0603,-1.53015 -1.30555,-1.03882 -2.04957,-2.59705 -0.74401,-1.57227 -0.74401,-3.73413 0,-2.0636 0.7019,-3.62183 0.7019,-1.55823 1.96533,-2.59704 1.27747,-1.05286 3.00415,-1.58631 1.74073,-0.53344 3.81836,-0.53344 2.55493,0 4.39392,0.67382 1.83899,0.67383 3.00415,1.88111 1.16516,1.20727 1.71265,2.90588 0.54749,1.69861 0.51941,3.77625 l -11.10413,0 z m 2.07764,-5.44678 q -0.98267,0 -1.45996,0.7019 -0.46326,0.68787 -0.61768,2.28821 l 4.11316,0 q -0.0842,-1.37573 -0.5896,-2.1759 -0.50537,-0.81421 -1.44592,-0.81421 z"
         style="font-style:normal;font-variant:normal;font-weight:normal;font-stretch:normal;font-size:28.75px;font-family:Ultra;-inkscape-font-specification:Ultra;letter-spacing:0.36000001px;fill:#ffffff"
         id="path4216" />
      <path
         d="m 157.33273,339.61517 q -0.71594,0 -1.23535,0.11231 -0.50537,0.0983 -0.87036,0.23865 -0.36499,0.14038 -0.60364,0.32287 -0.23864,0.16846 -0.42114,0.30884 l 0.14038,0.14038 q 0.26672,-0.14038 0.57556,-0.28076 0.32288,-0.14038 0.81421,-0.14038 0.82825,0 1.43189,0.54748 0.60363,0.53345 0.60363,1.71265 0,1.12305 -0.92651,1.81091 -0.91248,0.67383 -2.45666,0.67383 -1.474,0 -2.3584,-0.84228 -0.87036,-0.85633 -0.87036,-2.41456 0,-0.85632 0.47729,-1.6986 0.4773,-0.85633 1.474,-1.53016 1.01074,-0.67382 2.55493,-1.109 1.55823,-0.43518 3.74817,-0.43518 2.61108,0 4.26758,0.49133 1.65649,0.49133 2.56897,1.26343 0.92651,0.77209 1.26343,1.75476 0.35095,0.98266 0.35095,1.97937 l 0,5.48889 q 0,1.27746 0.0842,1.74072 0.0842,0.44922 0.63171,0.44922 0.43518,0 0.60364,-0.4071 0.18249,-0.42115 0.18249,-1.43189 l 0,-1.75476 1.60034,0 0,1.78284 q 0,1.26342 -0.21057,2.24609 -0.21057,0.96863 -0.80017,1.67053 -0.5896,0.68787 -1.60034,1.03882 -1.01074,0.36499 -2.58301,0.36499 -1.41784,0 -2.3584,-0.30884 -0.92651,-0.2948 -1.47399,-0.74401 -0.54749,-0.44922 -0.78614,-0.92652 -0.22461,-0.49133 -0.22461,-0.87036 l -0.22461,0 q -0.0842,0.57556 -0.49133,1.09497 -0.39307,0.51941 -1.10901,0.92651 -0.7019,0.39307 -1.69861,0.63172 -0.98266,0.25268 -2.24609,0.25268 -1.20728,0 -2.20398,-0.23864 -0.98267,-0.22461 -1.68457,-0.71595 -0.68787,-0.50537 -1.08093,-1.2915 -0.37903,-0.80017 -0.37903,-1.89514 0,-1.34766 0.75806,-2.11975 0.75805,-0.78614 1.90918,-1.23535 1.15112,-0.46326 2.49877,-0.74402 1.3617,-0.2948 2.51282,-0.70191 1.15113,-0.4071 1.90918,-1.05285 0.75806,-0.64576 0.75806,-1.82495 0,-1.05286 -0.65979,-1.68457 -0.65979,-0.64576 -2.16187,-0.64576 z m 2.82166,6.07849 q -0.30884,0.44922 -0.7721,0.72999 -0.46325,0.26672 -0.89843,0.53344 -0.42115,0.25269 -0.74402,0.61768 -0.30884,0.35095 -0.30884,0.95459 0,0.46325 0.25269,0.84228 0.25268,0.36499 0.98266,0.36499 0.65979,0 1.0669,-0.50537 0.42114,-0.51941 0.42114,-1.44592 l 0,-2.09168 z"
         style="font-style:normal;font-variant:normal;font-weight:normal;font-stretch:normal;font-size:28.75px;font-family:Ultra;-inkscape-font-specification:Ultra;letter-spacing:0.36000001px;fill:#ffffff"
         id="path4218" />
      <path
         d="m 188.21153,342.78778 -3.86047,0 q -0.40711,-1.01074 -1.26343,-1.60034 -0.85632,-0.5896 -1.78284,-0.5896 -0.63171,0 -1.01074,0.23865 -0.36499,0.22461 -0.36499,0.68786 0,0.57556 0.64575,0.87036 0.64576,0.28077 1.61438,0.50538 0.98267,0.2246 2.11975,0.54748 1.13709,0.30884 2.10572,0.89844 0.98266,0.5896 1.62842,1.5863 0.64575,0.99671 0.64575,2.62512 0,1.26343 -0.56153,2.20398 -0.56152,0.94056 -1.54419,1.54419 -0.96862,0.60364 -2.2882,0.89844 -1.31958,0.30884 -2.84973,0.30884 -1.48804,0 -2.82166,-0.2948 -1.31958,-0.28076 -2.52686,-0.96863 l -0.14038,0.96863 -3.70605,0 0,-5.62927 3.84643,0 q 0.54749,1.12304 1.37574,1.74072 0.84228,0.61767 1.85302,0.61767 0.7721,0 1.09497,-0.28076 0.33692,-0.2948 0.33692,-0.64575 0,-0.57556 -0.64575,-0.8844 -0.64575,-0.32287 -1.60034,-0.56152 -0.94056,-0.25269 -2.07764,-0.54749 -1.13709,-0.30884 -2.09168,-0.8844 -0.94055,-0.57556 -1.5863,-1.54419 -0.64575,-0.98266 -0.64575,-2.56897 0,-1.13708 0.50537,-2.07763 0.51941,-0.94055 1.474,-1.58631 0.95459,-0.64575 2.24609,-0.98266 1.29151,-0.35095 2.8357,-0.35095 1.72668,0 3.10241,0.39306 1.38977,0.37903 2.07764,0.84229 l 0.14038,-0.99671 3.72009,0 0,5.51697 z"
         style="font-style:normal;font-variant:normal;font-weight:normal;font-stretch:normal;font-size:28.75px;font-family:Ultra;-inkscape-font-specification:Ultra;letter-spacing:0.36000001px;fill:#ffffff"
         id="path4220" />
      <path
         d="m 210.72363,346.80267 q 0,0.67383 0.37903,0.89844 0.39307,0.22461 0.8844,0.22461 l 0.74402,0 0,5.20813 -8.33862,0 0,-3.84644 -0.22461,0 q -0.32288,2.14783 -1.75476,3.25684 -1.43189,1.10901 -4.16932,1.10901 -1.92321,0 -3.13049,-0.54749 -1.20727,-0.54748 -1.86706,-1.37573 -0.65979,-0.84228 -0.91248,-1.81091 -0.23865,-0.98267 -0.23865,-1.83899 l 0,-3.8324 q 0,-0.74402 -0.26672,-1.05285 -0.25269,-0.32288 -0.9967,-0.32288 l -0.84229,0 0,-5.20813 9.81262,0 0,8.85803 q 0,0.54749 0.12634,0.8844 0.12635,0.32288 0.32288,0.50537 0.21057,0.16846 0.46326,0.22461 0.26672,0.0562 0.49133,0.0562 0.92651,0 1.36169,-0.53344 0.44922,-0.53345 0.44922,-1.51612 l 0,-1.89514 q 0,-0.74402 -0.26672,-1.05285 -0.25269,-0.32288 -0.9967,-0.32288 l -0.82825,0 0,-5.20813 9.79858,0 0,9.13879 z"
         style="font-style:normal;font-variant:normal;font-weight:normal;font-stretch:normal;font-size:28.75px;font-family:Ultra;-inkscape-font-specification:Ultra;letter-spacing:0.36000001px;fill:#ffffff"
         id="path4222" />
      <path
         d="m 223.17043,337.66388 -0.23865,3.86047 0.23865,0 q 0.49133,-2.21801 1.62841,-3.3551 1.15113,-1.13708 2.97608,-1.13708 1.08093,0 1.85302,0.35095 0.78614,0.33691 1.26343,0.91247 0.4773,0.57556 0.68787,1.33362 0.21057,0.74402 0.21057,1.54419 0,0.65979 -0.19653,1.30554 -0.19654,0.64575 -0.63172,1.16516 -0.43518,0.51941 -1.12304,0.84229 -0.68787,0.30884 -1.69861,0.30884 -1.40381,0 -2.21802,-0.71595 -0.80017,-0.71594 -0.80017,-1.72668 0,-0.49133 0.1123,-0.82825 0.11231,-0.35095 0.22461,-0.56152 0.12635,-0.22461 0.16846,-0.32288 0.0421,-0.0983 -0.0983,-0.0983 -0.2948,0 -0.64575,0.67383 -0.33691,0.67382 -0.33691,2.11975 l 0,3.21472 q 0,0.74402 0.25268,1.06689 0.26673,0.30884 1.01075,0.30884 l 0.84228,0 0,5.20813 -11.82007,0 0,-5.20813 0.82825,0 q 0.57556,0 0.87036,-0.36499 0.30884,-0.37903 0.30884,-0.89844 l 0,-2.66723 q 0,-0.65979 -0.39307,-0.8844 -0.37903,-0.23865 -0.87036,-0.23865 l -0.74402,0 0,-5.20813 8.33863,0 z"
         style="font-style:normal;font-variant:normal;font-weight:normal;font-stretch:normal;font-size:28.75px;font-family:Ultra;-inkscape-font-specification:Ultra;letter-spacing:0.36000001px;fill:#ffffff"
         id="path4224" />
      <path
         d="m 241.02188,346.26923 q 0.0562,2.09167 0.78613,2.89184 0.74402,0.78613 2.11975,0.78613 0.46326,0 0.89844,-0.12634 0.44922,-0.14038 0.82825,-0.43518 0.37903,-0.30884 0.64575,-0.80017 0.28076,-0.50537 0.36499,-1.26343 l 5.10986,0 q -0.28076,1.81092 -1.03881,3.03223 -0.74402,1.22131 -1.92322,1.97937 -1.1792,0.74402 -2.75147,1.06689 -1.55822,0.33692 -3.48144,0.33692 -1.97937,0 -3.72009,-0.50537 -1.74073,-0.50537 -3.06031,-1.53015 -1.30554,-1.03882 -2.04956,-2.59705 -0.74402,-1.57227 -0.74402,-3.73413 0,-2.0636 0.70191,-3.62183 0.7019,-1.55823 1.96533,-2.59704 1.27747,-1.05286 3.00415,-1.58631 1.74072,-0.53344 3.81836,-0.53344 2.55493,0 4.39392,0.67382 1.83899,0.67383 3.00415,1.88111 1.16516,1.20727 1.71265,2.90588 0.54748,1.69861 0.51941,3.77625 l -11.10413,0 z m 2.07764,-5.44678 q -0.98267,0 -1.45996,0.7019 -0.46326,0.68787 -0.61768,2.28821 l 4.11316,0 q -0.0842,-1.37573 -0.5896,-2.1759 -0.50537,-0.81421 -1.44592,-0.81421 z"
         style="font-style:normal;font-variant:normal;font-weight:normal;font-stretch:normal;font-size:28.75px;font-family:Ultra;-inkscape-font-specification:Ultra;letter-spacing:0.36000001px;fill:#ffffff"
         id="path4226" />
    </g>
  </g>
</svg>
