<?xml version="1.0" encoding="UTF-8" standalone="no"?>
<!-- Created with Inkscape (http://www.inkscape.org/) -->

<svg
   xmlns:dc="http://purl.org/dc/elements/1.1/"
   xmlns:cc="http://creativecommons.org/ns#"
   xmlns:rdf="http://www.w3.org/1999/02/22-rdf-syntax-ns#"
   xmlns:svg="http://www.w3.org/2000/svg"
   xmlns="http://www.w3.org/2000/svg"
   xmlns:sodipodi="http://sodipodi.sourceforge.net/DTD/sodipodi-0.dtd"
   xmlns:inkscape="http://www.inkscape.org/namespaces/inkscape"
   width="52.8755mm"
   height="47.5406mm"
   viewBox="0 0 187.35413 168.45094"
   id="svg2"
   version="1.1"
   inkscape:version="0.91 r13725"
   sodipodi:docname="measure-logo.svg">
  <defs
     id="defs4" />
  <sodipodi:namedview
     id="base"
     pagecolor="#ffffff"
     bordercolor="#666666"
     borderopacity="1.0"
     inkscape:pageopacity="0.0"
     inkscape:pageshadow="2"
     inkscape:zoom="3.959798"
     inkscape:cx="-11.197806"
     inkscape:cy="79.220377"
     inkscape:document-units="px"
     inkscape:current-layer="layer1"
     showgrid="false"
     fit-margin-top="0"
     fit-margin-left="0"
     fit-margin-right="0"
     fit-margin-bottom="0"
     inkscape:window-width="1564"
     inkscape:window-height="1068"
     inkscape:window-x="220"
     inkscape:window-y="216"
     inkscape:window-maximized="0" />
  <metadata
     id="metadata7">
    <rdf:RDF>
      <cc:Work
         rdf:about="">
        <dc:format>image/svg+xml</dc:format>
        <dc:type
           rdf:resource="http://purl.org/dc/dcmitype/StillImage" />
        <dc:title></dc:title>
      </cc:Work>
    </rdf:RDF>
  </metadata>
  <g
     inkscape:label="Layer 1"
     inkscape:groupmode="layer"
     id="layer1"
     transform="translate(-74.416977,-190.80031)">
    <rect
       style="opacity:1;fill:#3b404f;fill-opacity:1;stroke:none;stroke-width:1.70000005;stroke-linecap:butt;stroke-linejoin:round;stroke-miterlimit:4;stroke-dasharray:none;stroke-dashoffset:0;stroke-opacity:1"
       id="rect4146"
       width="187.70847"
       height="168.80528"
       x="74.416977"
       y="190.44597" />
    <rect
       style="opacity:1;fill:#44cdcf;fill-opacity:1;stroke:none;stroke-width:1.70000005;stroke-linecap:butt;stroke-linejoin:round;stroke-miterlimit:4;stroke-dasharray:none;stroke-dashoffset:0;stroke-opacity:1"
       id="rect4140"
       width="47.142857"
       height="125"
       x="95"
       y="199.50507" />
    <rect
       y="199.50507"
       x="205"
       height="125"
       width="47.142857"
       id="rect4142"
       style="opacity:1;fill:#44cdcf;fill-opacity:1;stroke:none;stroke-width:1.70000005;stroke-linecap:butt;stroke-linejoin:round;stroke-miterlimit:4;stroke-dasharray:none;stroke-dashoffset:0;stroke-opacity:1" />
    <rect
       style="opacity:1;fill:#ff81ab;fill-opacity:1;stroke:none;stroke-width:1.70000005;stroke-linecap:butt;stroke-linejoin:round;stroke-miterlimit:4;stroke-dasharray:none;stroke-dashoffset:0;stroke-opacity:1"
       id="rect4144"
       width="47.142853"
       height="68.469902"
       x="150"
       y="256.03516" />
    <path
       style="fill:none;fill-rule:evenodd;stroke:#ffffff;stroke-width:1px;stroke-linecap:butt;stroke-linejoin:miter;stroke-opacity:1"
       d="m 88.482143,199.48274 0,131.37801 163.749997,0"
       id="path4148"
       inkscape:connector-curvature="0"
       sodipodi:nodetypes="ccc" />
    <path
       style="fill:none;fill-rule:evenodd;stroke:#ffffff;stroke-width:1px;stroke-linecap:butt;stroke-linejoin:miter;stroke-opacity:1"
       d="m 86.40625,199.9738 2.053572,0"
       id="path4150"
       inkscape:connector-curvature="0" />
    <path
       inkscape:connector-curvature="0"
       id="path4152"
       d="m 86.40625,220.61961 2.053572,0"
       style="fill:none;fill-rule:evenodd;stroke:#ffffff;stroke-width:1px;stroke-linecap:butt;stroke-linejoin:miter;stroke-opacity:1" />
    <path
       style="fill:none;fill-rule:evenodd;stroke:#ffffff;stroke-width:1px;stroke-linecap:butt;stroke-linejoin:miter;stroke-opacity:1"
       d="m 86.40625,241.26543 2.053572,0"
       id="path4154"
       inkscape:connector-curvature="0" />
    <path
       inkscape:connector-curvature="0"
       id="path4156"
       d="m 86.40625,261.91124 2.053572,0"
       style="fill:none;fill-rule:evenodd;stroke:#ffffff;stroke-width:1px;stroke-linecap:butt;stroke-linejoin:miter;stroke-opacity:1" />
    <path
       style="fill:none;fill-rule:evenodd;stroke:#ffffff;stroke-width:1px;stroke-linecap:butt;stroke-linejoin:miter;stroke-opacity:1"
       d="m 86.40625,282.55705 2.053572,0"
       id="path4158"
       inkscape:connector-curvature="0" />
    <path
       inkscape:connector-curvature="0"
       id="path4160"
       d="m 86.40625,303.20286 2.053572,0"
       style="fill:none;fill-rule:evenodd;stroke:#ffffff;stroke-width:1px;stroke-linecap:butt;stroke-linejoin:miter;stroke-opacity:1" />
    <path
       style="fill:none;fill-rule:evenodd;stroke:#ffffff;stroke-width:1px;stroke-linecap:butt;stroke-linejoin:miter;stroke-opacity:1"
       d="m 86.40625,323.84868 2.053572,0"
       id="path4162"
       inkscape:connector-curvature="0" />
    <g
       style="font-style:normal;font-variant:normal;font-weight:normal;font-stretch:normal;font-size:180px;line-height:125%;font-family:'URW Bookman L';-inkscape-font-specification:'URW Bookman L';letter-spacing:0.40000001px;word-spacing:0px;fill:#000000;fill-opacity:1;stroke:none;stroke-width:1px;stroke-linecap:butt;stroke-linejoin:miter;stroke-opacity:1"
       id="text4164">
      <path
         d="m 109.20855,345.94113 q 0,0.77637 0.26367,1.11328 0.27832,0.32227 1.05469,0.32227 l 0.4834,0 0,5.43457 -9.84375,0 0,-9.36035 q 0,-0.57129 -0.11719,-0.90821 -0.11719,-0.35156 -0.32227,-0.52734 -0.19043,-0.19043 -0.4541,-0.24902 -0.24902,-0.0586 -0.483396,-0.0586 -0.966797,0 -1.333008,0.55664 -0.351562,0.55664 -0.351562,1.58204 l 0,2.09472 q 0,0.77637 0.263672,1.11328 0.27832,0.32227 1.054687,0.32227 l 0.483399,0 0,5.43457 -11.938477,0 0,-5.43457 0.864258,0 q 0.600586,0 0.908203,-0.38086 0.322266,-0.39551 0.322266,-0.9375 l 0,-2.7832 q 0,-0.68848 -0.410157,-0.92286 -0.395507,-0.24902 -0.908203,-0.24902 l -0.776367,0 0,-5.43457 8.701172,0 -0.307617,4.02832 0.249023,0 q 0.322266,-2.25586 1.816406,-3.47168 1.50879,-1.21582 4.365231,-1.21582 1.06934,0 1.99219,0.29297 0.9375,0.27832 1.65527,0.86426 0.73243,0.58594 1.14258,1.47949 0.42481,0.87891 0.4834,2.05078 l 0.20508,0 q 0.13184,-1.11328 0.64453,-1.99219 0.52734,-0.89355 1.31836,-1.47949 0.80566,-0.58594 1.75781,-0.89355 0.9668,-0.32227 2.02149,-0.32227 1.94824,0 3.17871,0.57129 1.23047,0.57129 1.91894,1.4502 0.68848,0.86425 0.9375,1.88964 0.26368,1.01075 0.26368,1.9043 l 0,4.11621 q 0,0.77637 0.26367,1.11328 0.27832,0.32227 1.05468,0.32227 l 0.77637,0 0,5.43457 -10.13672,0 0,-9.36035 q 0,-0.57129 -0.13183,-0.90821 -0.11719,-0.35156 -0.30762,-0.52734 -0.19043,-0.19043 -0.4541,-0.24902 -0.24903,-0.0586 -0.4834,-0.0586 -0.9668,0 -1.33301,0.55664 -0.35156,0.55664 -0.35156,1.58204 l 0,2.09472 z"
         style="font-style:normal;font-variant:normal;font-weight:normal;font-stretch:normal;font-size:30px;font-family:Ultra;-inkscape-font-specification:Ultra;letter-spacing:0.40000001px;fill:#ffffff"
         id="path4169"
         inkscape:connector-curvature="0" />
      <path
         d="m 132.10855,345.64816 q 0.0586,2.18262 0.82031,3.01758 0.77637,0.82031 2.21192,0.82031 0.4834,0 0.9375,-0.13183 0.46875,-0.14649 0.86426,-0.4541 0.3955,-0.32227 0.67382,-0.83496 0.29297,-0.52735 0.38086,-1.31836 l 5.33203,0 q -0.29296,1.88964 -1.08398,3.16406 -0.77637,1.27441 -2.00684,2.06543 -1.23046,0.77637 -2.87109,1.11328 -1.62598,0.35156 -3.63281,0.35156 -2.06543,0 -3.88184,-0.52734 -1.8164,-0.52735 -3.19336,-1.59668 -1.3623,-1.08399 -2.13867,-2.70996 -0.77637,-1.64063 -0.77637,-3.89649 0,-2.15332 0.73243,-3.77929 0.73242,-1.62598 2.05078,-2.70996 1.333,-1.09864 3.13476,-1.65528 1.81641,-0.55664 3.98438,-0.55664 2.66601,0 4.58496,0.70313 1.91894,0.70312 3.13476,1.96289 1.21582,1.25976 1.78711,3.03222 0.57129,1.77246 0.542,3.94043 l -11.58692,0 z m 2.16797,-5.68359 q -1.02539,0 -1.52344,0.73242 -0.4834,0.71777 -0.64453,2.3877 l 4.29199,0 q -0.0879,-1.43555 -0.61523,-2.27051 -0.52734,-0.84961 -1.50879,-0.84961 z"
         style="font-style:normal;font-variant:normal;font-weight:normal;font-stretch:normal;font-size:30px;font-family:Ultra;-inkscape-font-specification:Ultra;letter-spacing:0.40000001px;fill:#ffffff"
         id="path4171"
         inkscape:connector-curvature="0" />
      <path
         d="m 153.17749,338.7048 q -0.74707,0 -1.28906,0.11719 -0.52734,0.10254 -0.9082,0.24902 -0.38086,0.14649 -0.62988,0.33692 -0.24903,0.17578 -0.43946,0.32226 l 0.14649,0.14649 q 0.27832,-0.14649 0.60058,-0.29297 0.33692,-0.14648 0.84961,-0.14648 0.86426,0 1.49414,0.57128 0.62989,0.55665 0.62989,1.78711 0,1.17188 -0.9668,1.88965 -0.95215,0.70313 -2.56348,0.70313 -1.53808,0 -2.46094,-0.87891 -0.9082,-0.89355 -0.9082,-2.51953 0,-0.89355 0.49805,-1.77246 0.49805,-0.89356 1.53808,-1.59668 1.05469,-0.70313 2.66602,-1.15723 1.62598,-0.4541 3.91113,-0.4541 2.72461,0 4.45313,0.5127 1.72851,0.51269 2.68066,1.31836 0.9668,0.80566 1.31836,1.83105 0.36621,1.02539 0.36621,2.06543 l 0,5.72754 q 0,1.33301 0.0879,1.81641 0.0879,0.46875 0.65918,0.46875 0.4541,0 0.62989,-0.42481 0.19042,-0.43945 0.19042,-1.49414 l 0,-1.83105 1.66993,0 0,1.86035 q 0,1.31836 -0.21973,2.34375 -0.21973,1.01074 -0.83496,1.74316 -0.61524,0.71777 -1.66992,1.08399 -1.05469,0.38085 -2.69532,0.38085 -1.47949,0 -2.46093,-0.32226 -0.9668,-0.30762 -1.53809,-0.77637 -0.57129,-0.46875 -0.82031,-0.96679 -0.23438,-0.5127 -0.23438,-0.90821 l -0.23437,0 q -0.0879,0.60059 -0.5127,1.14258 -0.41015,0.54199 -1.15722,0.9668 -0.73242,0.41015 -1.77246,0.65918 -1.02539,0.26367 -2.34375,0.26367 -1.25977,0 -2.29981,-0.24902 -1.02539,-0.23438 -1.75781,-0.74708 -0.71777,-0.52734 -1.12793,-1.34765 -0.39551,-0.83496 -0.39551,-1.97754 0,-1.40625 0.79102,-2.21191 0.79101,-0.82032 1.99218,-1.28907 1.20118,-0.4834 2.60743,-0.77636 1.42089,-0.30762 2.62207,-0.73243 1.20117,-0.4248 1.99218,-1.09863 0.79102,-0.67383 0.79102,-1.9043 0,-1.09863 -0.68848,-1.75781 -0.68847,-0.67383 -2.25586,-0.67383 z m 2.94434,6.34278 q -0.32227,0.46875 -0.80566,0.76172 -0.4834,0.27832 -0.9375,0.55664 -0.43946,0.26367 -0.77637,0.64453 -0.32227,0.36621 -0.32227,0.99609 0,0.4834 0.26367,0.87891 0.26368,0.38086 1.0254,0.38086 0.68847,0 1.11328,-0.52735 0.43945,-0.54199 0.43945,-1.50879 l 0,-2.18261 z"
         style="font-style:normal;font-variant:normal;font-weight:normal;font-stretch:normal;font-size:30px;font-family:Ultra;-inkscape-font-specification:Ultra;letter-spacing:0.40000001px;fill:#ffffff"
         id="path4173"
         inkscape:connector-curvature="0" />
      <path
         d="m 185.42319,342.01535 -4.02832,0 q -0.4248,-1.05469 -1.31835,-1.66992 -0.89356,-0.61524 -1.86036,-0.61524 -0.65918,0 -1.05468,0.24903 -0.38086,0.23437 -0.38086,0.71777 0,0.60059 0.67382,0.9082 0.67383,0.29297 1.68458,0.52735 1.02539,0.23437 2.21191,0.57129 1.18652,0.32226 2.19726,0.9375 1.0254,0.61523 1.69922,1.65527 0.67383,1.04004 0.67383,2.73926 0,1.31836 -0.58594,2.2998 -0.58593,0.98145 -1.61132,1.61133 -1.01075,0.62988 -2.3877,0.9375 -1.37695,0.32227 -2.97363,0.32227 -1.55274,0 -2.94434,-0.30762 -1.37695,-0.29297 -2.63672,-1.01074 l -0.14648,1.01074 -3.86719,0 0,-5.87402 4.01367,0 q 0.57129,1.17187 1.43555,1.8164 0.87891,0.64453 1.93359,0.64453 0.80567,0 1.14258,-0.29297 0.35156,-0.30761 0.35156,-0.67382 0,-0.60059 -0.67382,-0.92285 -0.67383,-0.33692 -1.66993,-0.58594 -0.98144,-0.26367 -2.16796,-0.57129 -1.18653,-0.32227 -2.18262,-0.92285 -0.98145,-0.60059 -1.65527,-1.61133 -0.67383,-1.02539 -0.67383,-2.68067 0,-1.18652 0.52734,-2.16796 0.54199,-0.98145 1.53809,-1.65528 0.99609,-0.67383 2.34375,-1.02539 1.34765,-0.36621 2.95898,-0.36621 1.80176,0 3.23731,0.41016 1.45019,0.39551 2.16796,0.8789 l 0.14649,-1.04004 3.88183,0 0,5.75684 z"
         style="font-style:normal;font-variant:normal;font-weight:normal;font-stretch:normal;font-size:30px;font-family:Ultra;-inkscape-font-specification:Ultra;letter-spacing:0.40000001px;fill:#ffffff"
         id="path4175"
         inkscape:connector-curvature="0" />
      <path
         d="m 208.93843,346.2048 q 0,0.70313 0.39551,0.9375 0.41015,0.23438 0.92285,0.23438 l 0.77637,0 0,5.43457 -8.70117,0 0,-4.01367 -0.23438,0 q -0.33691,2.24121 -1.83105,3.39843 -1.49414,1.15723 -4.35059,1.15723 -2.00684,0 -3.2666,-0.57129 -1.25977,-0.57129 -1.94824,-1.43554 -0.68848,-0.87891 -0.95215,-1.88965 -0.24903,-1.02539 -0.24903,-1.91895 l 0,-3.99902 q 0,-0.77637 -0.27832,-1.09863 -0.26367,-0.33692 -1.04004,-0.33692 l -0.8789,0 0,-5.43457 10.23926,0 0,9.24316 q 0,0.57129 0.13183,0.92286 0.13184,0.33691 0.33692,0.52734 0.21972,0.17578 0.48339,0.23438 0.27833,0.0586 0.5127,0.0586 0.9668,0 1.4209,-0.55664 0.46875,-0.55664 0.46875,-1.58203 l 0,-1.97754 q 0,-0.77637 -0.27832,-1.09863 -0.26367,-0.33692 -1.04004,-0.33692 l -0.86426,0 0,-5.43457 10.22461,0 0,9.53613 z"
         style="font-style:normal;font-variant:normal;font-weight:normal;font-stretch:normal;font-size:30px;font-family:Ultra;-inkscape-font-specification:Ultra;letter-spacing:0.40000001px;fill:#ffffff"
         id="path4177"
         inkscape:connector-curvature="0" />
      <path
         d="m 221.95074,336.66867 -0.24903,4.02832 0.24903,0 q 0.51269,-2.31445 1.69922,-3.50098 1.20117,-1.18652 3.10546,-1.18652 1.12793,0 1.9336,0.36621 0.82031,0.35156 1.31836,0.95215 0.49804,0.60059 0.71777,1.3916 0.21973,0.77637 0.21973,1.61133 0,0.68848 -0.20508,1.3623 -0.20508,0.67383 -0.65918,1.21583 -0.4541,0.54199 -1.17188,0.8789 -0.71777,0.32227 -1.77246,0.32227 -1.46484,0 -2.31445,-0.74707 -0.83496,-0.74707 -0.83496,-1.80176 0,-0.5127 0.11719,-0.86426 0.11718,-0.36621 0.23437,-0.58594 0.13184,-0.23437 0.17578,-0.33691 0.0439,-0.10254 -0.10254,-0.10254 -0.30761,0 -0.67382,0.70313 -0.35157,0.70312 -0.35157,2.21191 l 0,3.35449 q 0,0.77637 0.26368,1.11328 0.27832,0.32227 1.05468,0.32227 l 0.87891,0 0,5.43457 -12.33398,0 0,-5.43457 0.86425,0 q 0.60059,0 0.90821,-0.38086 0.32226,-0.39551 0.32226,-0.9375 l 0,-2.7832 q 0,-0.68848 -0.41015,-0.92286 -0.39551,-0.24902 -0.90821,-0.24902 l -0.77636,0 0,-5.43457 8.70117,0 z"
         style="font-style:normal;font-variant:normal;font-weight:normal;font-stretch:normal;font-size:30px;font-family:Ultra;-inkscape-font-specification:Ultra;letter-spacing:0.40000001px;fill:#ffffff"
         id="path4179"
         inkscape:connector-curvature="0" />
      <path
         d="m 240.60268,345.64816 q 0.0586,2.18262 0.82032,3.01758 0.77636,0.82031 2.21191,0.82031 0.4834,0 0.9375,-0.13183 0.46875,-0.14649 0.86426,-0.4541 0.39551,-0.32227 0.67383,-0.83496 0.29297,-0.52735 0.38086,-1.31836 l 5.33203,0 q -0.29297,1.88964 -1.08399,3.16406 -0.77636,1.27441 -2.00683,2.06543 -1.23047,0.77637 -2.8711,1.11328 -1.62597,0.35156 -3.63281,0.35156 -2.06543,0 -3.88184,-0.52734 -1.8164,-0.52735 -3.19335,-1.59668 -1.36231,-1.08399 -2.13868,-2.70996 -0.77636,-1.64063 -0.77636,-3.89649 0,-2.15332 0.73242,-3.77929 0.73242,-1.62598 2.05078,-2.70996 1.33301,-1.09864 3.13476,-1.65528 1.81641,-0.55664 3.98438,-0.55664 2.66602,0 4.58496,0.70313 1.91895,0.70312 3.13477,1.96289 1.21582,1.25976 1.78711,3.03222 0.57128,1.77246 0.54199,3.94043 l -11.58692,0 z m 2.16797,-5.68359 q -1.02539,0 -1.52343,0.73242 -0.4834,0.71777 -0.64454,2.3877 l 4.292,0 q -0.0879,-1.43555 -0.61524,-2.27051 -0.52734,-0.84961 -1.50879,-0.84961 z"
         style="font-style:normal;font-variant:normal;font-weight:normal;font-stretch:normal;font-size:30px;font-family:Ultra;-inkscape-font-specification:Ultra;letter-spacing:0.40000001px;fill:#ffffff"
         id="path4181"
         inkscape:connector-curvature="0" />
    </g>
  </g>
</svg>
