<?xml version="1.0" encoding="UTF-8" standalone="no"?>
<!-- Generator: Adobe Illustrator 21.1.0, SVG Export Plug-In . SVG Version: 6.00 Build 0)  -->

<svg
   xmlns:dc="http://purl.org/dc/elements/1.1/"
   xmlns:cc="http://creativecommons.org/ns#"
   xmlns:rdf="http://www.w3.org/1999/02/22-rdf-syntax-ns#"
   xmlns:svg="http://www.w3.org/2000/svg"
   xmlns="http://www.w3.org/2000/svg"
   xmlns:sodipodi="http://sodipodi.sourceforge.net/DTD/sodipodi-0.dtd"
   xmlns:inkscape="http://www.inkscape.org/namespaces/inkscape"
   version="1.1"
   id="Layer_1"
   x="0px"
   y="0px"
   viewBox="0 0 78.995697 47.396198"
   xml:space="preserve"
   inkscape:version="0.91 r13725"
   sodipodi:docname="Overview-highlighted.svg"
   width="78.995697"
   height="47.396198"><metadata
     id="metadata77"><rdf:RDF><cc:Work
         rdf:about=""><dc:format>image/svg+xml</dc:format><dc:type
           rdf:resource="http://purl.org/dc/dcmitype/StillImage" /><dc:title>Stat2</dc:title></cc:Work></rdf:RDF></metadata><defs
     id="defs75" /><sodipodi:namedview
     pagecolor="#ffffff"
     bordercolor="#666666"
     borderopacity="1"
     objecttolerance="10"
     gridtolerance="10"
     guidetolerance="10"
     inkscape:pageopacity="0"
     inkscape:pageshadow="2"
     inkscape:window-width="1505"
     inkscape:window-height="761"
     id="namedview73"
     showgrid="false"
     inkscape:zoom="3.9493671"
     inkscape:cx="-59.122699"
     inkscape:cy="17.7994"
     inkscape:window-x="196"
     inkscape:window-y="333"
     inkscape:window-maximized="0"
     inkscape:current-layer="Layer_1"
     fit-margin-top="0"
     fit-margin-left="0"
     fit-margin-right="0"
     fit-margin-bottom="0" /><title
     id="title45">Stat2</title><g
     id="g47"
     style="fill:#4dced0;fill-opacity:1"
     transform="translate(6.9891872e-4,-0.00320108)"><g
       id="g49"
       style="fill:#4dced0;fill-opacity:1"><path
         d="m 64,27.4 c -0.3,0 -0.5,-0.2 -0.5,-0.5 0,-0.1 0,-0.2 0.1,-0.3 l 0.5,-0.8 c 0.1,-0.2 0.4,-0.3 0.7,-0.2 0.3,0.1 0.3,0.4 0.2,0.7 0,0 0,0 0,0 l -0.5,0.8 c -0.2,0.3 -0.3,0.3 -0.5,0.3 z m 1.6,-2.5 c -0.3,0 -0.5,-0.2 -0.5,-0.5 0,-0.1 0,-0.2 0.1,-0.3 l 0.5,-0.8 c 0.2,-0.2 0.5,-0.3 0.7,-0.1 0.2,0.1 0.3,0.4 0.1,0.7 L 66,24.7 c -0.1,0.1 -0.2,0.2 -0.4,0.2 z m 1.6,-2.5 c -0.3,0 -0.5,-0.2 -0.5,-0.5 0,-0.1 0,-0.2 0.1,-0.3 l 0.5,-0.8 c 0.2,-0.2 0.5,-0.3 0.7,-0.1 0.2,0.1 0.3,0.4 0.1,0.7 l -0.5,0.8 c 0,0.1 -0.2,0.2 -0.4,0.2 l 0,0 z m 1.7,-2.5 c -0.3,0 -0.5,-0.2 -0.5,-0.5 0,-0.1 0,-0.2 0.1,-0.3 L 69,18.3 c 0.1,-0.2 0.4,-0.3 0.7,-0.2 0.3,0.1 0.3,0.4 0.2,0.7 0,0 0,0 0,0 l -0.5,0.8 c -0.2,0.2 -0.4,0.3 -0.5,0.3 l 0,0 z m 1.6,-2.6 c -0.3,0 -0.5,-0.2 -0.5,-0.5 0,-0.1 0,-0.2 0.1,-0.3 l 0.5,-0.8 c 0.2,-0.2 0.5,-0.3 0.7,-0.1 0.2,0.1 0.3,0.4 0.1,0.7 l -0.5,0.8 c -0.1,0.1 -0.3,0.2 -0.4,0.2 l 0,0 z"
         id="path51"
         style="fill:#4dced0;fill-opacity:1"
         inkscape:connector-curvature="0" /><path
         d="m 57,27.5 c -0.2,0 -0.4,-0.1 -0.5,-0.3 l -0.4,-0.9 c -0.1,-0.2 0,-0.5 0.2,-0.7 0.2,-0.1 0.5,0 0.7,0.2 0,0 0,0.1 0,0.1 l 0.4,0.9 c 0.1,0.3 0,0.5 -0.3,0.7 0,0 0,0 -0.1,0 z m -1.1,-2.8 c -0.2,0 -0.4,-0.1 -0.5,-0.3 L 55,23.5 c -0.1,-0.2 0,-0.5 0.2,-0.7 0.2,-0.1 0.5,0 0.7,0.2 0,0 0,0.1 0,0.1 l 0.4,0.9 c 0.1,0.3 0,0.5 -0.3,0.7 0,0 -0.1,0 -0.1,0 l 0,0 z M 54.7,22 c -0.2,0 -0.4,-0.1 -0.5,-0.3 l -0.4,-0.9 c -0.1,-0.2 0,-0.5 0.2,-0.7 0.2,-0.1 0.5,0 0.7,0.2 0,0 0,0.1 0,0.1 l 0.4,0.9 c 0.1,0.3 0,0.5 -0.3,0.7 0,0 0,0 -0.1,0 z m -1.1,-2.8 c -0.2,0 -0.4,-0.1 -0.5,-0.3 L 52.7,18 c -0.1,-0.2 0,-0.5 0.2,-0.7 0.2,-0.1 0.5,0 0.7,0.2 0,0 0,0.1 0,0.1 l 0.4,0.9 c 0.1,0.3 0,0.5 -0.3,0.6 0,0.1 -0.1,0.1 -0.1,0.1 l 0,0 z m -1.2,-2.8 c -0.2,0 -0.4,-0.1 -0.5,-0.3 l -0.4,-0.9 c -0.1,-0.2 0,-0.5 0.2,-0.7 0.2,-0.1 0.5,0 0.7,0.2 0,0 0,0.1 0,0.1 l 0.4,0.9 c 0.1,0.3 0,0.5 -0.3,0.7 0.1,0 0,0 -0.1,0 z m -1.1,-2.8 c -0.2,0 -0.4,-0.1 -0.5,-0.3 l -0.4,-0.9 c -0.1,-0.2 0,-0.5 0.2,-0.7 0.2,-0.1 0.5,0 0.7,0.2 0,0 0,0.1 0,0.1 l 0.4,0.9 c 0.1,0.3 0,0.5 -0.3,0.7 0,0 0,0 -0.1,0 z m -1.1,-2.7 c -0.2,0 -0.4,-0.1 -0.5,-0.3 l -0.2,-0.4 c -0.1,-0.2 0,-0.5 0.2,-0.7 0.2,-0.1 0.5,0 0.7,0.2 0,0 0,0.1 0,0.1 l 0.2,0.4 c 0.1,0.3 0,0.5 -0.3,0.7 0,-0.1 -0.1,0 -0.1,0 z"
         id="path53"
         style="fill:#4dced0;fill-opacity:1"
         inkscape:connector-curvature="0" /><path
         d="m 35.1,37.5 c -0.1,0 -0.1,0 -0.2,0 -0.3,-0.1 -0.4,-0.4 -0.3,-0.6 0,0 0,0 0,0 l 0.3,-0.8 c 0.1,-0.3 0.4,-0.4 0.6,-0.3 0.3,0.1 0.4,0.4 0.3,0.6 l -0.3,0.8 c 0,0.2 -0.2,0.3 -0.4,0.3 z m 1,-2.6 c -0.1,0 -0.1,0 -0.2,0 -0.3,-0.1 -0.4,-0.4 -0.3,-0.6 0,0 0,0 0,0 L 36,33.4 c 0.1,-0.3 0.4,-0.4 0.6,-0.3 0.3,0.1 0.4,0.4 0.3,0.6 l -0.4,0.9 c 0,0.1 -0.2,0.3 -0.4,0.3 l 0,0 z m 1.1,-2.8 C 37.1,32 37,32 37,32 c -0.3,-0.1 -0.4,-0.4 -0.3,-0.6 0,0 0,0 0,0 l 0.4,-0.9 c 0.1,-0.3 0.4,-0.4 0.6,-0.3 0.3,0.1 0.4,0.4 0.3,0.6 l -0.4,0.9 c 0,0.2 -0.2,0.4 -0.4,0.4 l 0,0 z m 1,-2.8 c -0.1,0 -0.1,0 -0.2,0 -0.3,-0.1 -0.4,-0.4 -0.3,-0.6 0,0 0,0 0,0 l 0.4,-0.9 c 0.1,-0.3 0.4,-0.4 0.6,-0.3 0.3,0.1 0.4,0.4 0.3,0.6 L 38.7,29 c -0.1,0.1 -0.3,0.3 -0.5,0.3 l 0,0 z m 1.1,-2.8 c -0.1,0 -0.1,0 -0.2,0 -0.3,-0.1 -0.4,-0.4 -0.3,-0.6 0,0 0,0 0,0 L 39.2,25 c 0.1,-0.3 0.4,-0.4 0.6,-0.3 0.3,0.1 0.4,0.4 0.3,0.6 l -0.4,0.9 c 0,0.1 -0.2,0.3 -0.4,0.3 l 0,0 z m 1.1,-2.8 c -0.1,0 -0.1,0 -0.2,0 -0.3,-0.1 -0.4,-0.4 -0.3,-0.6 0,0 0,0 0,0 l 0.4,-0.9 c 0.1,-0.3 0.4,-0.4 0.6,-0.3 0.3,0.1 0.4,0.4 0.3,0.6 l -0.4,0.9 c 0,0.1 -0.2,0.3 -0.4,0.3 l 0,0 z m 1,-2.8 c -0.1,0 -0.1,0 -0.2,0 -0.3,-0.1 -0.4,-0.4 -0.3,-0.6 0,0 0,0 0,0 l 0.4,-0.9 c 0.1,-0.3 0.4,-0.4 0.6,-0.3 0.3,0.1 0.4,0.4 0.3,0.6 l -0.4,0.9 c 0,0.1 -0.2,0.3 -0.4,0.3 l 0,0 z M 42.5,18 c -0.1,0 -0.1,0 -0.2,0 -0.3,-0.1 -0.4,-0.4 -0.3,-0.6 0,0 0,0 0,0 l 0.4,-0.9 c 0.1,-0.3 0.4,-0.4 0.6,-0.3 0.3,0.1 0.4,0.4 0.3,0.6 0,0 0,0 0,0.1 L 43,17.7 C 42.9,17.9 42.7,18 42.5,18 Z m 1.1,-2.8 c -0.1,0 -0.1,0 -0.2,0 -0.3,-0.1 -0.4,-0.4 -0.3,-0.6 0,0 0,0 0,0 l 0.4,-0.9 c 0.1,-0.3 0.4,-0.4 0.6,-0.3 0.3,0.1 0.4,0.4 0.3,0.6 0,0 0,0 0,0.1 L 44,14.9 c 0,0.2 -0.2,0.3 -0.4,0.3 l 0,0 z m 1,-2.8 c -0.1,0 -0.1,0 -0.2,0 -0.3,-0.1 -0.4,-0.4 -0.3,-0.6 0,0 0,0 0,0 l 0.4,-0.9 c 0.1,-0.3 0.4,-0.4 0.6,-0.3 0.3,0.1 0.4,0.4 0.3,0.6 0,0 0,0 0,0.1 L 45,12.2 c 0,0.1 -0.2,0.2 -0.4,0.2 l 0,0 z"
         id="path55"
         style="fill:#4dced0;fill-opacity:1"
         inkscape:connector-curvature="0" /><path
         d="m 30.8,37.6 c -0.2,0 -0.4,-0.1 -0.4,-0.3 l -0.5,-0.9 c -0.1,-0.2 0,-0.5 0.2,-0.7 0.2,-0.1 0.5,0 0.7,0.2 l 0.5,0.9 c 0.1,0.2 0,0.5 -0.2,0.7 -0.2,0.1 -0.2,0.1 -0.3,0.1 z M 29.3,35 c -0.2,0 -0.4,-0.1 -0.4,-0.3 l -0.5,-0.9 c -0.1,-0.2 0,-0.5 0.2,-0.7 0.2,-0.1 0.5,0 0.7,0.2 l 0.5,0.9 c 0.1,0.2 0,0.5 -0.2,0.7 -0.1,0 -0.2,0.1 -0.3,0.1 z m -1.4,-2.7 c -0.2,0 -0.4,-0.1 -0.4,-0.3 L 27,31.2 c -0.1,-0.2 0,-0.5 0.2,-0.7 0.2,-0.1 0.5,0 0.7,0.2 l 0.5,0.9 c 0.1,0.2 0,0.5 -0.2,0.7 -0.1,0 -0.2,0 -0.3,0 l 0,0 z m -1.4,-2.6 c -0.2,0 -0.4,-0.1 -0.4,-0.3 l -0.5,-0.9 c -0.1,-0.2 0,-0.5 0.2,-0.7 0.2,-0.1 0.5,0 0.7,0.2 l 0.5,0.9 c 0.1,0.2 0,0.5 -0.2,0.7 -0.2,0.1 -0.3,0.1 -0.3,0.1 z M 25,27 c -0.2,0 -0.4,-0.1 -0.4,-0.3 l -0.5,-0.9 c -0.1,-0.2 0,-0.5 0.2,-0.7 0.2,-0.1 0.5,0 0.7,0.2 l 0.5,0.9 c 0.1,0.2 0,0.5 -0.2,0.7 C 25.2,27 25.1,27 25,27 Z m -1.4,-2.6 c -0.2,0 -0.4,-0.1 -0.4,-0.3 l -0.5,-0.9 c -0.1,-0.2 0,-0.5 0.2,-0.7 0.2,-0.1 0.5,0 0.7,0.2 l 0.5,0.9 c 0.1,0.2 0,0.5 -0.2,0.7 -0.2,0 -0.3,0.1 -0.3,0.1 z m -1.5,-2.7 c -0.2,0 -0.4,-0.1 -0.4,-0.3 l -0.1,-0.3 c -0.1,-0.2 0,-0.5 0.2,-0.7 0.2,-0.1 0.5,0 0.7,0.2 l 0.1,0.3 c 0.1,0.2 0,0.5 -0.2,0.7 0,0 0,0 0,0 -0.1,0.1 -0.2,0.2 -0.3,0.1 l 0,0 z"
         id="path57"
         style="fill:#4dced0;fill-opacity:1"
         inkscape:connector-curvature="0" /><path
         d="m 8.7,28.9 c -0.3,0 -0.5,-0.2 -0.5,-0.5 0,-0.1 0,-0.2 0.1,-0.3 l 0.6,-0.8 c 0.2,-0.2 0.5,-0.2 0.7,-0.1 0.2,0.2 0.2,0.5 0.1,0.7 l 0,0 -0.6,0.8 C 9,28.9 8.8,28.9 8.7,28.9 Z m 1.9,-2.3 c -0.3,0 -0.5,-0.2 -0.5,-0.5 0,-0.1 0,-0.2 0.1,-0.3 L 10.8,25 c 0.2,-0.2 0.5,-0.2 0.7,-0.1 0.2,0.2 0.2,0.5 0.1,0.7 L 11,26.4 c -0.1,0.2 -0.3,0.2 -0.4,0.2 l 0,0 z m 1.9,-2.3 c -0.3,0 -0.5,-0.2 -0.5,-0.5 0,-0.1 0,-0.2 0.1,-0.3 l 0.6,-0.8 c 0.2,-0.2 0.5,-0.2 0.7,-0.1 0.2,0.2 0.2,0.5 0.1,0.7 l -0.6,0.8 c -0.1,0.1 -0.3,0.2 -0.4,0.2 l 0,0 z M 14.4,22 c -0.3,0 -0.5,-0.2 -0.5,-0.5 0,-0.1 0,-0.2 0.1,-0.3 l 0.6,-0.8 c 0.2,-0.2 0.5,-0.2 0.7,-0.1 0.2,0.2 0.2,0.5 0.1,0.7 l -0.6,0.8 C 14.7,21.9 14.5,22 14.4,22 Z"
         id="path59"
         style="fill:#4dced0;fill-opacity:1"
         inkscape:connector-curvature="0" /><circle
         transform="matrix(0.9325,-0.3611,0.3611,0.9325,-11.6471,3.6706)"
         cx="4"
         cy="33"
         id="ellipse61"
         style="fill:#4dced0;fill-opacity:1"
         r="4" /><circle
         transform="matrix(0.9325,-0.3611,0.3611,0.9325,-13.4478,14.8453)"
         cx="33"
         cy="43.400002"
         id="ellipse63"
         style="fill:#4dced0;fill-opacity:1"
         r="4" /><circle
         transform="matrix(0.9325,-0.3611,0.3611,0.9325,-4.1373,7.8724)"
         cx="19"
         cy="15"
         id="ellipse65"
         style="fill:#4dced0;fill-opacity:1"
         r="4" /><circle
         transform="matrix(0.9325,-0.3611,0.3611,0.9325,1.4466,27.7607)"
         cx="75"
         cy="10"
         id="ellipse67"
         style="fill:#4dced0;fill-opacity:1"
         r="4" /><circle
         transform="matrix(0.9325,-0.3611,0.3611,0.9325,1.7251,17.2448)"
         cx="47"
         cy="4"
         id="ellipse69"
         style="fill:#4dced0;fill-opacity:1"
         r="4" /><circle
         transform="matrix(0.9325,-0.3611,0.3611,0.9325,-7.8701,23.895)"
         cx="60"
         cy="33"
         id="ellipse71"
         style="fill:#4dced0;fill-opacity:1"
         r="4" /></g></g></svg>