<?xml version="1.0" encoding="UTF-8" standalone="no"?>
<!-- Generator: Adobe Illustrator 21.1.0, SVG Export Plug-In . SVG Version: 6.00 Build 0)  -->

<svg
   xmlns:dc="http://purl.org/dc/elements/1.1/"
   xmlns:cc="http://creativecommons.org/ns#"
   xmlns:rdf="http://www.w3.org/1999/02/22-rdf-syntax-ns#"
   xmlns:svg="http://www.w3.org/2000/svg"
   xmlns="http://www.w3.org/2000/svg"
   xmlns:sodipodi="http://sodipodi.sourceforge.net/DTD/sodipodi-0.dtd"
   xmlns:inkscape="http://www.inkscape.org/namespaces/inkscape"
   version="1.1"
   id="Layer_1"
   x="0px"
   y="0px"
   viewBox="0 0 79 59.2"
   style="enable-background:new 0 0 79 59.2;"
   xml:space="preserve"
   inkscape:version="0.91 r13725"
   sodipodi:docname="Overview.svg"><metadata
     id="metadata77"><rdf:RDF><cc:Work
         rdf:about=""><dc:format>image/svg+xml</dc:format><dc:type
           rdf:resource="http://purl.org/dc/dcmitype/StillImage" /></cc:Work></rdf:RDF></metadata><defs
     id="defs75" /><sodipodi:namedview
     pagecolor="#ffffff"
     bordercolor="#666666"
     borderopacity="1"
     objecttolerance="10"
     gridtolerance="10"
     guidetolerance="10"
     inkscape:pageopacity="0"
     inkscape:pageshadow="2"
     inkscape:window-width="920"
     inkscape:window-height="480"
     id="namedview73"
     showgrid="false"
     inkscape:zoom="3.9493671"
     inkscape:cx="39.5"
     inkscape:cy="29.6"
     inkscape:window-x="465"
     inkscape:window-y="448"
     inkscape:window-maximized="0"
     inkscape:current-layer="Layer_1" /><title
     id="title45">Stat2</title><g
     id="g47"
     style="fill:#ffffff"><g
       id="g49"
       style="fill:#ffffff"><path
         d="M64,27.4c-0.3,0-0.5-0.2-0.5-0.5c0-0.1,0-0.2,0.1-0.3l0.5-0.8c0.1-0.2,0.4-0.3,0.7-0.2s0.3,0.4,0.2,0.7c0,0,0,0,0,0    l-0.5,0.8C64.3,27.4,64.2,27.4,64,27.4z M65.6,24.9c-0.3,0-0.5-0.2-0.5-0.5c0-0.1,0-0.2,0.1-0.3l0.5-0.8c0.2-0.2,0.5-0.3,0.7-0.1    c0.2,0.1,0.3,0.4,0.1,0.7L66,24.7C65.9,24.8,65.8,24.9,65.6,24.9z M67.2,22.4c-0.3,0-0.5-0.2-0.5-0.5c0-0.1,0-0.2,0.1-0.3l0.5-0.8    c0.2-0.2,0.5-0.3,0.7-0.1c0.2,0.1,0.3,0.4,0.1,0.7l-0.5,0.8C67.6,22.3,67.4,22.4,67.2,22.4L67.2,22.4z M68.9,19.9    c-0.3,0-0.5-0.2-0.5-0.5c0-0.1,0-0.2,0.1-0.3l0.5-0.8c0.1-0.2,0.4-0.3,0.7-0.2s0.3,0.4,0.2,0.7c0,0,0,0,0,0l-0.5,0.8    C69.2,19.8,69,19.9,68.9,19.9L68.9,19.9z M70.5,17.3c-0.3,0-0.5-0.2-0.5-0.5c0-0.1,0-0.2,0.1-0.3l0.5-0.8c0.2-0.2,0.5-0.3,0.7-0.1    c0.2,0.1,0.3,0.4,0.1,0.7l-0.5,0.8C70.8,17.2,70.6,17.3,70.5,17.3L70.5,17.3z"
         id="path51"
         style="fill:#ffffff" /><path
         d="M57,27.5c-0.2,0-0.4-0.1-0.5-0.3l-0.4-0.9c-0.1-0.2,0-0.5,0.2-0.7c0.2-0.1,0.5,0,0.7,0.2c0,0,0,0.1,0,0.1l0.4,0.9    c0.1,0.3,0,0.5-0.3,0.7C57.1,27.5,57.1,27.5,57,27.5z M55.9,24.7c-0.2,0-0.4-0.1-0.5-0.3L55,23.5c-0.1-0.2,0-0.5,0.2-0.7    c0.2-0.1,0.5,0,0.7,0.2c0,0,0,0.1,0,0.1l0.4,0.9c0.1,0.3,0,0.5-0.3,0.7C56,24.7,55.9,24.7,55.9,24.7L55.9,24.7z M54.7,22    c-0.2,0-0.4-0.1-0.5-0.3l-0.4-0.9c-0.1-0.2,0-0.5,0.2-0.7c0.2-0.1,0.5,0,0.7,0.2c0,0,0,0.1,0,0.1l0.4,0.9c0.1,0.3,0,0.5-0.3,0.7    C54.8,22,54.8,22,54.7,22z M53.6,19.2c-0.2,0-0.4-0.1-0.5-0.3L52.7,18c-0.1-0.2,0-0.5,0.2-0.7c0.2-0.1,0.5,0,0.7,0.2    c0,0,0,0.1,0,0.1l0.4,0.9c0.1,0.3,0,0.5-0.3,0.6C53.7,19.2,53.6,19.2,53.6,19.2L53.6,19.2z M52.4,16.4c-0.2,0-0.4-0.1-0.5-0.3    l-0.4-0.9c-0.1-0.2,0-0.5,0.2-0.7c0.2-0.1,0.5,0,0.7,0.2c0,0,0,0.1,0,0.1l0.4,0.9c0.1,0.3,0,0.5-0.3,0.7    C52.6,16.4,52.5,16.4,52.4,16.4z M51.3,13.6c-0.2,0-0.4-0.1-0.5-0.3l-0.4-0.9c-0.1-0.2,0-0.5,0.2-0.7c0.2-0.1,0.5,0,0.7,0.2    c0,0,0,0.1,0,0.1l0.4,0.9c0.1,0.3,0,0.5-0.3,0.7C51.4,13.6,51.4,13.6,51.3,13.6z M50.2,10.9c-0.2,0-0.4-0.1-0.5-0.3l-0.2-0.4    c-0.1-0.2,0-0.5,0.2-0.7c0.2-0.1,0.5,0,0.7,0.2c0,0,0,0.1,0,0.1l0.2,0.4c0.1,0.3,0,0.5-0.3,0.7C50.3,10.8,50.2,10.9,50.2,10.9z"
         id="path53"
         style="fill:#ffffff" /><path
         d="M35.1,37.5c-0.1,0-0.1,0-0.2,0c-0.3-0.1-0.4-0.4-0.3-0.6c0,0,0,0,0,0l0.3-0.8c0.1-0.3,0.4-0.4,0.6-0.3    c0.3,0.1,0.4,0.4,0.3,0.6l-0.3,0.8C35.5,37.4,35.3,37.5,35.1,37.5z M36.1,34.9c-0.1,0-0.1,0-0.2,0c-0.3-0.1-0.4-0.4-0.3-0.6    c0,0,0,0,0,0l0.4-0.9c0.1-0.3,0.4-0.4,0.6-0.3c0.3,0.1,0.4,0.4,0.3,0.6l-0.4,0.9C36.5,34.7,36.3,34.9,36.1,34.9L36.1,34.9z     M37.2,32.1C37.1,32,37,32,37,32c-0.3-0.1-0.4-0.4-0.3-0.6c0,0,0,0,0,0l0.4-0.9c0.1-0.3,0.4-0.4,0.6-0.3c0.3,0.1,0.4,0.4,0.3,0.6    l-0.4,0.9C37.6,31.9,37.4,32.1,37.2,32.1L37.2,32.1z M38.2,29.3c-0.1,0-0.1,0-0.2,0c-0.3-0.1-0.4-0.4-0.3-0.6c0,0,0,0,0,0l0.4-0.9    c0.1-0.3,0.4-0.4,0.6-0.3c0.3,0.1,0.4,0.4,0.3,0.6L38.7,29C38.6,29.1,38.4,29.3,38.2,29.3L38.2,29.3z M39.3,26.5    c-0.1,0-0.1,0-0.2,0c-0.3-0.1-0.4-0.4-0.3-0.6c0,0,0,0,0,0l0.4-0.9c0.1-0.3,0.4-0.4,0.6-0.3c0.3,0.1,0.4,0.4,0.3,0.6l-0.4,0.9    C39.7,26.3,39.5,26.5,39.3,26.5L39.3,26.5z M40.4,23.7c-0.1,0-0.1,0-0.2,0c-0.3-0.1-0.4-0.4-0.3-0.6c0,0,0,0,0,0l0.4-0.9    c0.1-0.3,0.4-0.4,0.6-0.3c0.3,0.1,0.4,0.4,0.3,0.6l-0.4,0.9C40.8,23.5,40.6,23.7,40.4,23.7L40.4,23.7z M41.4,20.9    c-0.1,0-0.1,0-0.2,0c-0.3-0.1-0.4-0.4-0.3-0.6c0,0,0,0,0,0l0.4-0.9c0.1-0.3,0.4-0.4,0.6-0.3c0.3,0.1,0.4,0.4,0.3,0.6l-0.4,0.9    C41.8,20.7,41.6,20.9,41.4,20.9L41.4,20.9z M42.5,18c-0.1,0-0.1,0-0.2,0c-0.3-0.1-0.4-0.4-0.3-0.6c0,0,0,0,0,0l0.4-0.9    c0.1-0.3,0.4-0.4,0.6-0.3c0.3,0.1,0.4,0.4,0.3,0.6c0,0,0,0,0,0.1L43,17.7C42.9,17.9,42.7,18,42.5,18z M43.6,15.2    c-0.1,0-0.1,0-0.2,0c-0.3-0.1-0.4-0.4-0.3-0.6c0,0,0,0,0,0l0.4-0.9c0.1-0.3,0.4-0.4,0.6-0.3c0.3,0.1,0.4,0.4,0.3,0.6    c0,0,0,0,0,0.1L44,14.9C44,15.1,43.8,15.2,43.6,15.2L43.6,15.2z M44.6,12.4c-0.1,0-0.1,0-0.2,0c-0.3-0.1-0.4-0.4-0.3-0.6    c0,0,0,0,0,0l0.4-0.9c0.1-0.3,0.4-0.4,0.6-0.3c0.3,0.1,0.4,0.4,0.3,0.6c0,0,0,0,0,0.1l-0.4,0.9C45,12.3,44.8,12.4,44.6,12.4    L44.6,12.4z"
         id="path55"
         style="fill:#ffffff" /><path
         d="M30.8,37.6c-0.2,0-0.4-0.1-0.4-0.3l-0.5-0.9c-0.1-0.2,0-0.5,0.2-0.7c0.2-0.1,0.5,0,0.7,0.2l0.5,0.9c0.1,0.2,0,0.5-0.2,0.7    C30.9,37.6,30.9,37.6,30.8,37.6z M29.3,35c-0.2,0-0.4-0.1-0.4-0.3l-0.5-0.9c-0.1-0.2,0-0.5,0.2-0.7c0.2-0.1,0.5,0,0.7,0.2l0.5,0.9    c0.1,0.2,0,0.5-0.2,0.7C29.5,34.9,29.4,35,29.3,35z M27.9,32.3c-0.2,0-0.4-0.1-0.4-0.3L27,31.2c-0.1-0.2,0-0.5,0.2-0.7    c0.2-0.1,0.5,0,0.7,0.2l0.5,0.9c0.1,0.2,0,0.5-0.2,0.7C28.1,32.3,28,32.3,27.9,32.3L27.9,32.3z M26.5,29.7c-0.2,0-0.4-0.1-0.4-0.3    l-0.5-0.9c-0.1-0.2,0-0.5,0.2-0.7c0.2-0.1,0.5,0,0.7,0.2l0.5,0.9c0.1,0.2,0,0.5-0.2,0.7C26.6,29.7,26.5,29.7,26.5,29.7z M25,27    c-0.2,0-0.4-0.1-0.4-0.3l-0.5-0.9c-0.1-0.2,0-0.5,0.2-0.7c0.2-0.1,0.5,0,0.7,0.2l0.5,0.9c0.1,0.2,0,0.5-0.2,0.7    C25.2,27,25.1,27,25,27z M23.6,24.4c-0.2,0-0.4-0.1-0.4-0.3l-0.5-0.9c-0.1-0.2,0-0.5,0.2-0.7c0.2-0.1,0.5,0,0.7,0.2l0.5,0.9    c0.1,0.2,0,0.5-0.2,0.7C23.7,24.3,23.6,24.4,23.6,24.4z M22.1,21.7c-0.2,0-0.4-0.1-0.4-0.3l-0.1-0.3c-0.1-0.2,0-0.5,0.2-0.7    c0.2-0.1,0.5,0,0.7,0.2l0.1,0.3c0.1,0.2,0,0.5-0.2,0.7c0,0,0,0,0,0C22.3,21.7,22.2,21.8,22.1,21.7L22.1,21.7z"
         id="path57"
         style="fill:#ffffff" /><path
         d="M8.7,28.9c-0.3,0-0.5-0.2-0.5-0.5c0-0.1,0-0.2,0.1-0.3l0.6-0.8c0.2-0.2,0.5-0.2,0.7-0.1c0.2,0.2,0.2,0.5,0.1,0.7l0,0    l-0.6,0.8C9,28.9,8.8,28.9,8.7,28.9z M10.6,26.6c-0.3,0-0.5-0.2-0.5-0.5c0-0.1,0-0.2,0.1-0.3l0.6-0.8c0.2-0.2,0.5-0.2,0.7-0.1    c0.2,0.2,0.2,0.5,0.1,0.7L11,26.4C10.9,26.6,10.7,26.6,10.6,26.6L10.6,26.6z M12.5,24.3c-0.3,0-0.5-0.2-0.5-0.5    c0-0.1,0-0.2,0.1-0.3l0.6-0.8c0.2-0.2,0.5-0.2,0.7-0.1c0.2,0.2,0.2,0.5,0.1,0.7l-0.6,0.8C12.8,24.2,12.6,24.3,12.5,24.3L12.5,24.3    z M14.4,22c-0.3,0-0.5-0.2-0.5-0.5c0-0.1,0-0.2,0.1-0.3l0.6-0.8c0.2-0.2,0.5-0.2,0.7-0.1c0.2,0.2,0.2,0.5,0.1,0.7l-0.6,0.8    C14.7,21.9,14.5,22,14.4,22z"
         id="path59"
         style="fill:#ffffff" /><ellipse
         transform="matrix(0.9325 -0.3611 0.3611 0.9325 -11.6471 3.6706)"
         cx="4"
         cy="33"
         rx="4"
         ry="4"
         id="ellipse61"
         style="fill:#ffffff" /><ellipse
         transform="matrix(0.9325 -0.3611 0.3611 0.9325 -13.4478 14.8453)"
         cx="33"
         cy="43.4"
         rx="4"
         ry="4"
         id="ellipse63"
         style="fill:#ffffff" /><ellipse
         transform="matrix(0.9325 -0.3611 0.3611 0.9325 -4.1373 7.8724)"
         cx="19"
         cy="15"
         rx="4"
         ry="4"
         id="ellipse65"
         style="fill:#ffffff" /><ellipse
         transform="matrix(0.9325 -0.3611 0.3611 0.9325 1.4466 27.7607)"
         cx="75"
         cy="10"
         rx="4"
         ry="4"
         id="ellipse67"
         style="fill:#ffffff" /><ellipse
         transform="matrix(0.9325 -0.3611 0.3611 0.9325 1.7251 17.2448)"
         cx="47"
         cy="4"
         rx="4"
         ry="4"
         id="ellipse69"
         style="fill:#ffffff" /><ellipse
         transform="matrix(0.9325 -0.3611 0.3611 0.9325 -7.8701 23.895)"
         cx="60"
         cy="33"
         rx="4"
         ry="4"
         id="ellipse71"
         style="fill:#ffffff" /></g></g></svg>