<svg xmlns="http://www.w3.org/2000/svg" xmlns:xlink="http://www.w3.org/1999/xlink" version="1.1" x="0px" y="0px" viewBox="0 0 30 37.5" xml:space="preserve"><g transform="translate(-30 -440)"><g xmlns="http://www.w3.org/2000/svg" xmlns:xlink="http://www.w3.org/1999/xlink"><path d="M33.929,443.93c-3.905,3.904-3.905,10.236,0,14.141c3.543,3.545,9.08,3.861,12.994,0.973l8.927,8.928    c0.586,0.586,1.535,0.586,2.121,0s0.586-1.535,0-2.121l-8.928-8.928c2.889-3.912,2.572-9.449-0.973-12.992    C44.166,440.023,37.834,440.023,33.929,443.93z M45.95,455.949c-2.729,2.73-7.17,2.73-9.899,0c-2.729-2.728-2.729-7.17,0-9.898    c2.729-2.73,7.17-2.73,9.899,0C48.68,448.779,48.68,453.221,45.95,455.949z" fill="white"/></g></g></svg>